# xmcd
#
# Track frame offsets:
#	150
#	27292
#	42501
#	72894
#	87611
#	105700
#	120798
#	134801
#	156386
#	173066
#	189308
#	212046
#	239832
#	254157
#	270663
#
# Disc length: 3969 seconds
#
# Revision: 0
# Processed by: cddbd v1.4PL0 Copyright (c) Steve Scherf et al.
# Submitted via: EZCDDA 4.3.3.2
#
DISCID=e40f7f0f
DTITLE=Dixie Chicks - Ultra Rare Trax Disc 5
DYEAR=1900
DGENRE=
TTITLE0=Brilliancy - Dixie Chicken
TTITLE1=Roanoke
TTITLE2=Love Me Like A Man
TTITLE3=Roly Poly
TTITLE4=Walk Softly
TTITLE5=Stand By Your Man
TTITLE6=You Can't Hurry Love
TTITLE7=You Were Mine
TTITLE8=Mississippi
TTITLE9=Strong Enough
TTITLE10=Tombstone Blues
TTITLE11=Merry Xmas From The Family
TTITLE12=That Lonesome Road
TTITLE13=Bloody Mary Morning
TTITLE14=There's Your Trouble (remix)
EXTD=
EXTT0=
EXTT1=
EXTT2=
EXTT3=
EXTT4=
EXTT5=
EXTT6=
EXTT7=
EXTT8=
EXTT9=
EXTT10=
EXTT11=
EXTT12=
EXTT13=
EXTT14=
PLAYORDER=
